<svg id="visual" viewBox="0 0 900 600" width="900" height="600" xmlns="http://www.w3.org/2000/svg" xmlns:xlink="http://www.w3.org/1999/xlink" version="1.1"><rect x="0" y="0" width="900" height="600" fill="#ffffff"></rect><path d="M0 428L25 413.2C50 398.3 100 368.7 150 347.8C200 327 250 315 300 329.5C350 344 400 385 450 391.5C500 398 550 370 600 369.3C650 368.7 700 395.3 750 392.8C800 390.3 850 358.7 875 342.8L900 327L900 601L875 601C850 601 800 601 750 601C700 601 650 601 600 601C550 601 500 601 450 601C400 601 350 601 300 601C250 601 200 601 150 601C100 601 50 601 25 601L0 601Z" fill="#0066FF" stroke-linecap="round" stroke-linejoin="miter"></path></svg>