<svg id="visual" viewBox="0 0 960 540" width="960" height="540" xmlns="http://www.w3.org/2000/svg" xmlns:xlink="http://www.w3.org/1999/xlink" version="1.1"><rect x="0" y="0" width="960" height="540" fill="#ffffff"></rect><path d="M662 540L676 522C690 504 718 468 736.7 432C755.3 396 764.7 360 759.5 324C754.3 288 734.7 252 712.7 216C690.7 180 666.3 144 662.7 108C659 72 676 36 684.5 18L693 0L960 0L960 18C960 36 960 72 960 108C960 144 960 180 960 216C960 252 960 288 960 324C960 360 960 396 960 432C960 468 960 504 960 522L960 540Z" fill="#0066FF" stroke-linecap="round" stroke-linejoin="miter"></path></svg>